<svg width="34" height="34" viewBox="0 0 34 34" fill="none" xmlns="http://www.w3.org/2000/svg">
<path d="M17 0.333328C13.7036 0.333328 10.4813 1.31081 7.7405 3.14217C4.99968 4.97353 2.86347 7.5765 1.60201 10.6219C0.34055 13.6674 0.0104941 17.0185 0.653581 20.2515C1.29667 23.4845 2.88401 26.4542 5.21489 28.7851C7.54576 31.116 10.5155 32.7033 13.7485 33.3464C16.9815 33.9895 20.3326 33.6595 23.3781 32.398C26.4235 31.1365 29.0265 29.0003 30.8578 26.2595C32.6892 23.5187 33.6667 20.2964 33.6667 17C33.6667 14.8113 33.2356 12.644 32.398 10.6219C31.5604 8.59984 30.3328 6.76253 28.7851 5.21488C27.2375 3.66724 25.4002 2.43958 23.3781 1.602C21.356 0.764424 19.1887 0.333328 17 0.333328ZM17 30.3333C14.3629 30.3333 11.7851 29.5513 9.5924 28.0863C7.39974 26.6212 5.69078 24.5388 4.68161 22.1024C3.67244 19.6661 3.4084 16.9852 3.92287 14.3988C4.43734 11.8124 5.70721 9.43661 7.57191 7.57191C9.43661 5.7072 11.8124 4.43733 14.3988 3.92286C16.9852 3.40839 19.6661 3.67243 22.1024 4.6816C24.5388 5.69077 26.6212 7.39974 28.0863 9.59239C29.5513 11.785 30.3333 14.3629 30.3333 17C30.3333 20.5362 28.9286 23.9276 26.4281 26.4281C23.9276 28.9286 20.5362 30.3333 17 30.3333ZM23.6667 15.3333H18.6667V10.3333C18.6667 9.8913 18.4911 9.46738 18.1785 9.15482C17.866 8.84226 17.442 8.66666 17 8.66666C16.558 8.66666 16.1341 8.84226 15.8215 9.15482C15.5089 9.46738 15.3333 9.8913 15.3333 10.3333V15.3333H10.3333C9.89131 15.3333 9.46739 15.5089 9.15482 15.8215C8.84226 16.134 8.66667 16.558 8.66667 17C8.66667 17.442 8.84226 17.8659 9.15482 18.1785C9.46739 18.4911 9.89131 18.6667 10.3333 18.6667H15.3333V23.6667C15.3333 24.1087 15.5089 24.5326 15.8215 24.8452C16.1341 25.1577 16.558 25.3333 17 25.3333C17.442 25.3333 17.866 25.1577 18.1785 24.8452C18.4911 24.5326 18.6667 24.1087 18.6667 23.6667V18.6667H23.6667C24.1087 18.6667 24.5326 18.4911 24.8452 18.1785C25.1577 17.8659 25.3333 17.442 25.3333 17C25.3333 16.558 25.1577 16.134 24.8452 15.8215C24.5326 15.5089 24.1087 15.3333 23.6667 15.3333Z" fill="#48DA3B"/>
</svg>
