<svg width="34" height="34" viewBox="0 0 34 34" fill="none" xmlns="http://www.w3.org/2000/svg">
<path d="M32 17C31.558 17 31.134 17.1756 30.8215 17.4882C30.5089 17.8007 30.3333 18.2246 30.3333 18.6667V28.6667C30.3333 29.1087 30.1577 29.5326 29.8452 29.8452C29.5326 30.1577 29.1087 30.3333 28.6667 30.3333H5.33333C4.8913 30.3333 4.46738 30.1577 4.15482 29.8452C3.84226 29.5326 3.66666 29.1087 3.66666 28.6667V5.33333C3.66666 4.89131 3.84226 4.46738 4.15482 4.15482C4.46738 3.84226 4.8913 3.66667 5.33333 3.66667H15.3333C15.7754 3.66667 16.1993 3.49107 16.5118 3.17851C16.8244 2.86595 17 2.44203 17 2C17 1.55797 16.8244 1.13405 16.5118 0.821489C16.1993 0.508928 15.7754 0.333333 15.3333 0.333333H5.33333C4.00725 0.333333 2.73548 0.860118 1.79779 1.7978C0.860113 2.73548 0.333328 4.00725 0.333328 5.33333V28.6667C0.333328 29.9928 0.860113 31.2645 1.79779 32.2022C2.73548 33.1399 4.00725 33.6667 5.33333 33.6667H28.6667C29.9927 33.6667 31.2645 33.1399 32.2022 32.2022C33.1399 31.2645 33.6667 29.9928 33.6667 28.6667V18.6667C33.6667 18.2246 33.4911 17.8007 33.1785 17.4882C32.8659 17.1756 32.442 17 32 17ZM7 18.2667V25.3333C7 25.7754 7.17559 26.1993 7.48815 26.5118C7.80071 26.8244 8.22463 27 8.66666 27H15.7333C15.9527 27.0013 16.1701 26.9592 16.3732 26.8763C16.5762 26.7933 16.7609 26.6711 16.9167 26.5167L28.45 14.9667L33.1833 10.3333C33.3395 10.1784 33.4635 9.99406 33.5481 9.79096C33.6328 9.58786 33.6763 9.37002 33.6763 9.15C33.6763 8.92998 33.6328 8.71214 33.5481 8.50904C33.4635 8.30594 33.3395 8.12161 33.1833 7.96667L26.1167 0.816667C25.9617 0.660453 25.7774 0.536462 25.5743 0.451848C25.3712 0.367233 25.1533 0.323669 24.9333 0.323669C24.7133 0.323669 24.4955 0.367233 24.2924 0.451848C24.0893 0.536462 23.9049 0.660453 23.75 0.816667L19.05 5.53333L7.48333 17.0833C7.32886 17.2391 7.20665 17.4238 7.12371 17.6268C7.04077 17.8299 6.99873 18.0473 7 18.2667ZM24.9333 4.35L29.65 9.06667L27.2833 11.4333L22.5667 6.71667L24.9333 4.35ZM10.3333 18.95L20.2167 9.06667L24.9333 13.7833L15.05 23.6667H10.3333V18.95Z" fill="#99CCEE"/>
</svg>
