<svg width="30" height="30" viewBox="0 0 30 30" fill="none" xmlns="http://www.w3.org/2000/svg">
<path d="M8.33333 26.6667C7.00725 26.6667 5.73548 26.1399 4.7978 25.2022C3.86012 24.2645 3.33333 22.9927 3.33333 21.6667V8.33333C3.33333 7.00725 3.86012 5.73548 4.7978 4.7978C5.73548 3.86012 7.00725 3.33333 8.33333 3.33333C8.77536 3.33333 9.19928 3.15774 9.51184 2.84518C9.8244 2.53262 10 2.10869 10 1.66667C10 1.22464 9.8244 0.800716 9.51184 0.488155C9.19928 0.175595 8.77536 0 8.33333 0C6.1232 0 4.00358 0.877974 2.44078 2.44078C0.877974 4.00358 0 6.1232 0 8.33333V21.6667C0 23.8768 0.877974 25.9964 2.44078 27.5592C4.00358 29.122 6.1232 30 8.33333 30C8.77536 30 9.19928 29.8244 9.51184 29.5118C9.8244 29.1993 10 28.7754 10 28.3333C10 27.8913 9.8244 27.4674 9.51184 27.1548C9.19928 26.8423 8.77536 26.6667 8.33333 26.6667ZM21.1833 21.1833C21.3395 21.0284 21.4635 20.8441 21.5482 20.641C21.6328 20.4379 21.6763 20.22 21.6763 20C21.6763 19.78 21.6328 19.5621 21.5482 19.359C21.4635 19.1559 21.3395 18.9716 21.1833 18.8167L17.35 15L21.1833 11.1833C21.4972 10.8695 21.6735 10.4438 21.6735 10C21.6735 9.55616 21.4972 9.13051 21.1833 8.81667C20.8695 8.50283 20.4438 8.32651 20 8.32651C19.5562 8.32651 19.1305 8.50283 18.8167 8.81667L15 12.65L11.1833 8.81667C10.8695 8.50283 10.4438 8.32651 10 8.32651C9.55616 8.32651 9.13051 8.50283 8.81667 8.81667C8.50283 9.13051 8.32651 9.55616 8.32651 10C8.32651 10.4438 8.50283 10.8695 8.81667 11.1833L12.65 15L8.81667 18.8167C8.66045 18.9716 8.53646 19.1559 8.45185 19.359C8.36723 19.5621 8.32367 19.78 8.32367 20C8.32367 20.22 8.36723 20.4379 8.45185 20.641C8.53646 20.8441 8.66045 21.0284 8.81667 21.1833C8.9716 21.3395 9.15594 21.4635 9.35904 21.5482C9.56214 21.6328 9.77998 21.6763 10 21.6763C10.22 21.6763 10.4379 21.6328 10.641 21.5482C10.8441 21.4635 11.0284 21.3395 11.1833 21.1833L15 17.35L18.8167 21.1833C18.9716 21.3395 19.1559 21.4635 19.359 21.5482C19.5621 21.6328 19.78 21.6763 20 21.6763C20.22 21.6763 20.4379 21.6328 20.641 21.5482C20.8441 21.4635 21.0284 21.3395 21.1833 21.1833ZM21.6667 0C21.2246 0 20.8007 0.175595 20.4882 0.488155C20.1756 0.800716 20 1.22464 20 1.66667C20 2.10869 20.1756 2.53262 20.4882 2.84518C20.8007 3.15774 21.2246 3.33333 21.6667 3.33333C22.9927 3.33333 24.2645 3.86012 25.2022 4.7978C26.1399 5.73548 26.6667 7.00725 26.6667 8.33333V21.6667C26.6667 22.9927 26.1399 24.2645 25.2022 25.2022C24.2645 26.1399 22.9927 26.6667 21.6667 26.6667C21.2246 26.6667 20.8007 26.8423 20.4882 27.1548C20.1756 27.4674 20 27.8913 20 28.3333C20 28.7754 20.1756 29.1993 20.4882 29.5118C20.8007 29.8244 21.2246 30 21.6667 30C23.8768 30 25.9964 29.122 27.5592 27.5592C29.122 25.9964 30 23.8768 30 21.6667V8.33333C30 6.1232 29.122 4.00358 27.5592 2.44078C25.9964 0.877974 23.8768 0 21.6667 0Z" fill="#E23636"/>
</svg>
